<?xml version="1.0" encoding="UTF-8" standalone="no"?>
<svg
   version="1.0"
   width="321px"
   height="387px"
   viewBox="0 0 321 387"
   preserveAspectRatio="xMidYMid meet"
   id="svg45"
   sodipodi:docname="moc-logo.svg"
   inkscape:version="1.4 (86a8ad7, 2024-10-11)"
   xmlns:inkscape="http://www.inkscape.org/namespaces/inkscape"
   xmlns:sodipodi="http://sodipodi.sourceforge.net/DTD/sodipodi-0.dtd"
   xmlns="http://www.w3.org/2000/svg"
   xmlns:svg="http://www.w3.org/2000/svg">
  <defs
     id="defs45" />
  <sodipodi:namedview
     id="namedview45"
     pagecolor="#ffffff"
     bordercolor="#000000"
     borderopacity="0.25"
     inkscape:showpageshadow="2"
     inkscape:pageopacity="0.0"
     inkscape:pagecheckerboard="0"
     inkscape:deskcolor="#d1d1d1"
     inkscape:zoom="2.1059432"
     inkscape:cx="160.02331"
     inkscape:cy="178.77975"
     inkscape:window-width="1920"
     inkscape:window-height="1017"
     inkscape:window-x="-8"
     inkscape:window-y="-8"
     inkscape:window-maximized="1"
     inkscape:current-layer="svg45" />
  <g
     fill="#ffffff"
     id="g14">
    <path
       d="M110.83 352.13 c-2.35 -0.73 -3.18 -2.73 -3.22 -7.68 l-0.03 -2.35 -1.90 0 -1.90 0 0 5.02 0 5.02 -3.46 0 -3.46 0 0.07 -12.49 0.10 -12.52 3.11 -0.62 c1.73 -0.35 4.15 -0.66 5.47 -0.66 l2.32 0 0 1.25 0 1.28 0.69 -0.86 c1.11 -1.45 2.39 -1.76 6.54 -1.59 3.67 0.10 3.84 0.14 4.84 1.14 0.59 0.55 1.11 1.25 1.14 1.52 0 0.31 0.14 -0.14 0.24 -1 l0.21 -1.56 3.11 0 3.11 0 0.10 9.79 c0.03 6.30 0.21 9.72 0.42 9.58 0.21 -0.14 0.35 -3.91 0.35 -9.89 l0 -9.65 2.70 0 c1.45 0 2.91 0.14 3.18 0.35 0.31 0.17 0.66 0.17 0.90 -0.03 0.24 -0.17 1.87 -0.28 3.63 -0.24 l3.25 0.10 0.21 1.04 0.24 1.04 0.03 -1.11 0.03 -1.11 7.85 0 c4.32 -0.03 8.41 0.14 9.10 0.31 1.94 0.52 2.91 1.80 3.15 4.08 l0.21 1.97 0.07 -1.97 c0.07 -3.46 1.59 -4.39 7.23 -4.43 2.80 0 4.53 0.55 5.40 1.76 l0.55 0.80 0 -1.28 0 -1.28 9.27 0.07 9.24 0.10 0.10 13.08 0.07 13.04 -3.29 0 -3.29 0 0 -9.69 0 -9.69 -1.38 0 -1.38 0 0 9.69 0 9.69 -3.29 0 -3.29 0 0 -9.69 0 -9.69 -1.21 0 -1.21 0 0 9.69 0 9.69 -3.29 0 -3.29 0 -0.07 -2.66 -0.07 -2.70 -0.17 2.59 -0.21 2.59 -3.36 0.10 -3.39 0.10 0 -1.49 0 -1.49 -0.69 1.11 c-0.35 0.59 -0.97 1.28 -1.35 1.49 -0.45 0.24 -3.70 0.31 -9.62 0.28 l-8.89 -0.10 -0.24 -0.86 -0.24 -0.86 -0.03 0.97 -0.03 0.93 -3.29 0 -3.29 0 -0.03 -1.80 0 -1.83 -0.42 1.18 c-0.76 2.21 -1.83 2.63 -6.43 2.63 -4.53 0 -5.60 -0.38 -6.43 -2.35 l-0.45 -1.07 -0.52 1.07 c-0.93 1.80 -2.08 2.28 -5.78 2.39 -1.80 0.07 -3.77 -0.03 -4.36 -0.21z m4.01 -13.01 c0 -3.94 -0.14 -6.33 -0.35 -6.19 -0.17 0.10 -0.24 1.69 -0.17 3.74 0.07 1.94 0.17 4.74 0.17 6.23 0 1.45 0.07 2.66 0.17 2.66 0.10 0 0.17 -2.91 0.17 -6.43z m41.40 -3.49 c-0.03 -1.87 -0.10 -0.35 -0.10 3.36 0 3.70 0.07 5.22 0.10 3.39 0.07 -1.87 0.07 -4.91 0 -6.75z m13.56 -2.53 c-0.17 -0.31 -0.28 0.48 -0.24 1.90 l0.03 2.42 0.24 -1.90 c0.14 -1.04 0.10 -2.14 -0.03 -2.42z m-62.23 0.69 l0 -1.76 -1.97 0.10 -2.01 0.10 -0.10 1.66 -0.10 1.63 2.08 0 2.11 0 0 -1.73z"
       id="path2" />
    <path
       d="M198.31 352.13 c-0.59 -0.21 -1.49 -0.83 -1.97 -1.42 l-0.90 -1.07 0 -10.41 c0 -9.75 0.03 -10.52 0.69 -11.55 0.90 -1.52 2.53 -1.94 6.81 -1.76 3.18 0.10 3.60 0.17 4.43 0.97 0.52 0.48 1.07 1.18 1.21 1.56 0.24 0.52 0.31 0.24 0.31 -0.93 0.03 -1.90 -0.14 -1.87 4.12 -1.25 2.77 0.38 2.84 0.42 3.15 1.45 0.24 0.86 0.31 0.93 0.35 0.31 0.03 -0.69 0.21 -0.80 1.35 -0.80 1.28 0.03 4.08 0.66 4.77 1.11 0.24 0.17 0.35 4.05 0.35 11.93 l-0.03 11.69 -3.53 0.10 c-3.42 0.10 -3.53 0.07 -3.67 -0.69 l-0.14 -0.80 -0.07 0.80 c-0.03 0.73 -0.17 0.76 -3.32 0.76 l-3.29 0 0 -1.63 -0.03 -1.66 -0.48 1.11 c-0.80 1.83 -1.94 2.32 -5.67 2.42 -1.83 0.03 -3.80 -0.07 -4.43 -0.24z m4.05 -13.04 c0 -3.53 -0.10 -6.36 -0.21 -6.26 -0.24 0.28 -0.62 11.55 -0.35 12.21 0.10 0.28 0.28 0.52 0.38 0.52 0.10 0 0.17 -2.91 0.17 -6.47z"
       id="path3" />
    <path
       d="M62.40 327.19 c-1.69 -0.48 -3.46 -2.70 -4.29 -5.40 -0.38 -1.28 -2.28 -8.30 -4.15 -15.57 -2.84 -10.86 -3.46 -13.63 -3.46 -15.70 0 -5.02 1.73 -6.75 8.58 -8.58 7.33 -1.94 11 -1.31 12.90 2.14 1.04 1.97 2.84 8.99 2.66 10.62 l-0.10 1.14 -3.80 1 c-2.08 0.55 -4.25 0.93 -4.81 0.90 -0.93 -0.10 -1 -0.24 -1.73 -3.11 -0.42 -1.66 -0.83 -3.11 -0.97 -3.22 -0.10 -0.10 -0.59 -0.03 -1.11 0.17 -0.69 0.24 -0.90 0.52 -0.76 0.97 0.10 0.31 1.52 5.81 3.18 12.18 1.63 6.36 3.11 11.80 3.32 12.04 0.21 0.21 0.55 0.42 0.80 0.42 1 0 1.14 -0.86 0.48 -3.46 -0.83 -3.39 -0.83 -4.74 -0.03 -4.98 3.36 -1 6.02 -1.59 7.23 -1.59 1.18 0 1.49 -0.14 1.49 -0.59 0 -0.31 -1.11 -6.12 -2.42 -12.94 -1.31 -6.78 -2.42 -13.01 -2.42 -13.84 l0 -1.52 4.46 -0.83 c2.46 -0.45 4.67 -0.76 4.95 -0.66 0.31 0.14 0.86 2.21 1.63 6.19 0.66 3.32 1.35 6.95 1.56 8.09 0.31 1.63 0.55 2.11 1.07 2.18 1.73 0.21 1.73 -0.14 0.21 -7.75 -0.76 -3.98 -1.42 -7.78 -1.42 -8.44 l0 -1.25 3.56 -0.59 c4.15 -0.73 6.33 -0.76 6.54 -0.14 0.10 0.21 0.93 4.50 1.87 9.48 0.90 4.98 1.73 8.99 1.80 8.92 0.07 -0.03 -0.21 -2.63 -0.59 -5.71 -0.83 -6.26 -0.90 -8.23 -0.38 -10.10 0.86 -3.11 3.25 -4.43 9.51 -5.29 4.88 -0.69 8.27 -0.55 9.93 0.42 2.18 1.25 2.63 2.66 3.91 12.28 0.66 4.81 1.35 10.55 1.59 12.69 0.24 2.18 0.52 3.77 0.59 3.53 0.07 -0.24 -0.21 -7.06 -0.62 -15.08 -0.45 -8.02 -0.73 -14.84 -0.62 -15.12 0.17 -0.38 1.69 -0.59 7.02 -0.93 3.74 -0.24 6.85 -0.38 6.92 -0.31 0.07 0.07 0.83 4.08 1.66 8.92 0.93 5.40 1.59 8.47 1.73 7.96 0.10 -0.48 0.45 -4.53 0.76 -8.96 0.28 -4.46 0.59 -8.16 0.62 -8.20 0.03 -0.03 3.15 -0.21 6.88 -0.35 5.71 -0.21 6.85 -0.14 6.99 0.24 0.07 0.28 0.35 5.08 0.59 10.69 0.69 17.64 0.83 19.96 1.07 18.68 0.21 -1.07 0.97 -23.63 0.97 -28.16 l0 -1.69 7.71 0.21 c8.47 0.24 10.55 0.62 12.07 2.21 1.59 1.66 2.01 3.18 2.04 7.61 l0.07 4.08 0.48 -6.40 c0.28 -3.53 0.66 -6.54 0.83 -6.71 0.35 -0.38 9.30 0.35 9.75 0.80 0.14 0.14 -0.03 4.08 -0.42 8.72 -0.73 8.99 -1.14 15.70 -0.90 14.84 0.10 -0.28 0.62 -4.19 1.21 -8.65 0.55 -4.46 1.21 -8.72 1.38 -9.41 0.48 -1.63 2.46 -3.63 4.12 -4.08 1.80 -0.48 5.47 -0.42 9.65 0.21 4.91 0.73 7.06 1.90 7.99 4.39 0.62 1.63 0.42 6.78 -0.52 13.94 -0.48 3.74 -0.83 6.92 -0.76 7.13 0.07 0.17 1.11 -4.95 2.32 -11.38 1.21 -6.43 2.28 -11.90 2.35 -12.11 0.10 -0.24 0.59 -0.45 1.11 -0.45 1.11 0 9.17 1.56 9.69 1.87 0.24 0.17 0.38 1.83 0.42 4.46 0 2.32 0.10 4.84 0.24 5.57 0.21 1.21 0.38 0.76 1.25 -3.87 l0.97 -5.26 1.49 0 c0.83 0 2.49 0.21 3.70 0.48 1.21 0.28 2.77 0.59 3.49 0.69 1.25 0.24 1.28 0.28 1.28 1.69 0 0.83 -1.07 6.92 -2.42 13.56 -1.31 6.64 -2.42 12.11 -2.42 12.18 0 0.07 0.52 0.10 1.14 0.10 0.59 0 2.21 0.31 3.53 0.69 1.31 0.38 2.53 0.69 2.66 0.69 0.17 0 -0.73 -1.49 -1.97 -3.25 -3.08 -4.43 -3.36 -5.81 -2.32 -10.90 0.97 -4.77 2.25 -8.54 3.25 -9.65 1.28 -1.38 3.29 -2.14 5.81 -2.14 3.70 0 10.58 1.94 12.63 3.53 2.28 1.80 2.87 6.16 1.52 11.45 -1.45 5.88 -1.25 5.43 -2.49 5.43 -0.62 0 -2.42 -0.42 -4.01 -0.86 -1.63 -0.48 -2.97 -0.83 -3.01 -0.76 -0.07 0.03 0.55 0.93 1.31 1.94 0.80 1.04 1.94 2.73 2.59 3.80 1.66 2.73 1.59 5.47 -0.24 12.73 -2.04 7.99 -3.25 9.41 -8.16 9.44 -2.42 0 -8.13 -1.21 -10.65 -2.25 -1.73 -0.73 -3.36 -2.21 -4.01 -3.74 l-0.59 -1.35 -0.24 1.59 c-0.24 1.56 -0.28 1.59 -1.52 1.59 -1.14 0 -9.34 -1.56 -9.62 -1.80 -0.03 -0.07 -0.21 -2.46 -0.35 -5.29 -0.14 -3.04 -0.35 -4.88 -0.52 -4.50 -0.14 0.38 -0.59 2.53 -1.04 4.77 l-0.76 4.05 -1.31 0 c-0.73 0 -2.35 -0.21 -3.67 -0.48 -1.28 -0.28 -2.94 -0.59 -3.67 -0.73 l-1.35 -0.21 0.14 -1.66 0.10 -1.66 -1.35 1.07 c-1.25 1 -1.52 1.07 -4.77 1.18 -3.74 0.14 -8.13 -0.35 -10.72 -1.18 -1.76 -0.55 -3.56 -2.32 -3.94 -3.77 -0.38 -1.56 -0.83 -0.90 -0.83 1.25 l0 2.14 -3.36 -0.24 c-1.87 -0.14 -4.12 -0.31 -5.02 -0.45 l-1.66 -0.21 0 -2.46 c0 -1.35 0.24 -5.19 0.52 -8.51 0.28 -3.32 0.52 -6.26 0.52 -6.54 0 -0.28 -0.35 0.03 -0.80 0.69 -1.31 1.97 -3.29 2.73 -7.19 2.73 l-3.32 0 -0.24 1.59 c-0.10 0.90 -0.21 3.91 -0.21 6.71 l0 5.08 -9.75 0.17 c-5.40 0.10 -9.82 0.14 -9.86 0.14 -0.03 -0.03 -0.21 -2.77 -0.35 -6.09 l-0.24 -6.05 -0.28 3.29 c-0.14 1.80 -0.35 4.57 -0.45 6.09 l-0.24 2.80 -1.56 0.24 c-0.86 0.10 -3.01 0.21 -4.74 0.21 l-3.18 0 -0.42 -3.18 c-0.24 -1.76 -0.66 -4.22 -0.90 -5.47 -0.42 -2.11 -0.42 -1.90 -0.28 3.32 l0.17 5.57 -2.91 0.21 c-1.59 0.14 -3.67 0.24 -4.57 0.24 -0.93 0 -1.94 0.14 -2.25 0.31 -0.31 0.17 -2.63 0.42 -5.12 0.55 l-4.53 0.24 -0.59 -4.60 c-0.93 -7.30 -0.76 -6.75 -2.18 -6.61 -1.14 0.14 -1.18 0.21 -1 1.25 0.55 3.32 1.28 9.96 1.14 10.34 -0.10 0.31 -1.52 0.59 -4.08 0.90 -2.18 0.21 -4.50 0.55 -5.15 0.73 -3.15 0.86 -9.65 1.73 -9.69 1.31 0 -0.07 -0.76 -3.91 -1.69 -8.58 l-1.63 -8.47 -1.04 0.10 c-0.55 0.07 -1.04 0.17 -1.11 0.24 -0.07 0.03 0.62 3.87 1.56 8.44 1.21 6.19 1.52 8.51 1.28 8.96 -0.38 0.59 -3.29 1.25 -7.47 1.66 l-2.32 0.24 -0.21 -1 c-0.55 -2.39 -0.55 -2.42 -1.11 -1.14 -1.04 2.46 -2.56 3.46 -7.54 5.02 -3.36 1.04 -8.09 1.42 -10.07 0.80z m183.12 -10.41 c0.21 -0.21 0.66 -1.52 0.97 -2.87 0.59 -2.53 0.59 -2.53 -0.21 -3.63 l-0.80 -1.11 -0.93 3.60 c-0.90 3.49 -0.86 4.43 0.14 4.43 0.24 0 0.59 -0.17 0.83 -0.42z m-45.28 -8.89 c0.21 -0.35 1.07 -6.12 1.94 -12.83 1.59 -12.45 1.63 -13.14 0.31 -13.14 -0.28 0 -0.66 0.35 -0.83 0.80 -0.21 0.42 -1.04 6.23 -1.90 12.87 -1.42 11.17 -1.49 12.14 -0.97 12.56 0.80 0.55 1.07 0.52 1.45 -0.24z m-11.14 -12.21 c-0.07 -0.45 -0.14 -0.17 -0.14 0.59 -0.03 0.76 0.03 1.11 0.14 0.80 0.07 -0.35 0.07 -0.97 0 -1.38z m62.57 -1.45 c0.52 -1.94 0.52 -2.08 -0.07 -2.53 -0.86 -0.62 -1.25 -0.42 -1.73 0.97 -0.62 1.76 -0.59 2.63 0.31 3.80 0.62 0.90 0.76 0.97 0.86 0.42 0.03 -0.35 0.35 -1.56 0.62 -2.66z m-139.30 1.31 c0.24 -0.21 -1.63 -13.01 -1.97 -13.35 -0.28 -0.28 -0.62 -0.21 -1.21 0.17 l-0.83 0.55 0.45 3.22 c0.24 1.76 0.66 4.74 0.90 6.61 l0.42 3.39 1.07 -0.24 c0.55 -0.10 1.11 -0.28 1.18 -0.35z m56.04 -4.77 c0.24 -0.31 0.48 -2.56 0.62 -5.85 0.21 -5.12 0.17 -5.36 -0.48 -5.71 -0.66 -0.38 -0.69 -0.24 -0.93 3.29 -0.31 5.12 -0.28 8.75 0.10 8.75 0.17 0 0.48 -0.21 0.69 -0.48z m11 -5.47 c-0.07 -0.45 -0.14 -0.10 -0.14 0.76 0 0.86 0.07 1.21 0.14 0.80 0.07 -0.45 0.07 -1.14 0 -1.56z"
       id="path4" />
    <path
       d="M58.11 236.77 l0 -23 6.92 0 c6.88 0 6.92 0 7.06 0.80 0.10 0.42 0.59 4.19 1.07 8.37 0.52 4.19 1 7.89 1.14 8.23 0.14 0.35 0.69 -3.22 1.25 -7.96 0.55 -4.70 1.07 -8.75 1.14 -8.99 0.14 -0.35 1.83 -0.45 7.06 -0.45 l6.88 0 0 23 0 23 -5.02 0 -5.02 0 -0.03 -5.78 -0.07 -5.81 -0.42 3.46 c-0.24 1.90 -0.55 4.50 -0.69 5.81 l-0.24 2.35 -4.70 -0.10 -4.74 -0.10 -0.69 -5.71 -0.69 -5.71 -0.10 5.81 -0.07 5.78 -5.02 0 -5.02 0 0 -23z"
       id="path5" />
    <path
       d="M91.32 256.59 c-0.03 -1.76 -0.10 -12.14 -0.21 -23 l-0.21 -19.82 5.05 0 5.05 0 0 23 0 23 -4.84 0 -4.84 0 0 -3.18z"
       id="path6" />
    <path
       d="M101.70 236.77 l0 -23.04 5.43 0.10 5.43 0.10 1.25 5.33 1.21 5.36 0.10 -5.43 0.10 -5.43 4.98 0 5.02 0 0 23 0 23.04 -5.43 -0.10 -5.43 -0.10 -1.28 -5.02 -1.28 -5.02 -0.03 5.12 -0.03 5.08 -5.02 0 -5.02 0 0 -23z"
       id="path7" />
    <path
       d="M125.56 237.19 c0 -17.12 0.10 -22.69 0.42 -23 0.55 -0.55 15.95 -0.59 17.61 0 1.80 0.59 3.04 1.59 3.77 3.04 0.62 1.21 0.69 2.08 0.69 7.51 0 3.39 0.10 8.37 0.24 11.10 l0.21 4.91 4.12 0 4.12 0 -2.63 -2.11 c-3.46 -2.80 -4.67 -4.05 -5.22 -5.40 -0.59 -1.35 -0.69 -13.08 -0.14 -15.01 0.45 -1.56 1.80 -2.97 3.63 -3.77 3.11 -1.38 13.18 -1.14 15.57 0.35 1.69 1.04 2.63 2.53 2.94 4.60 0.21 1.52 0.28 1.21 0.31 -1.90 l0.03 -3.74 19.54 0 19.58 0 -0.10 5.29 -0.10 5.26 -2.66 0.10 -2.70 0.10 0 17.61 0 17.64 -5.02 0 -5.02 0 0 -17.64 0 -17.64 -2.59 0 c-2.35 0 -2.59 -0.07 -2.59 -0.69 0 -0.66 -0.24 -0.69 -3.98 -0.69 l-3.98 0 0 3.98 0 3.98 3.98 0 3.98 0 0 5.19 0 5.19 -3.94 0 c-3.77 0 -3.94 0.03 -4.15 0.80 -0.28 1 -0.28 4.70 0 6.09 l0.24 1.07 3.91 0 3.94 0 0 5.19 0 5.19 -9.17 0 -9.17 0 -0.03 -3.53 c-0.03 -2.97 -0.10 -3.32 -0.35 -2.08 -0.45 2.28 -1.49 3.70 -3.49 4.70 -1.69 0.86 -2.08 0.90 -7.16 0.90 -5.74 0 -7.23 -0.24 -9.06 -1.49 -1.59 -1.07 -2.46 -2.73 -2.73 -5.22 l-0.24 -2.11 -0.07 1.73 c-0.10 3.25 -2.04 5.95 -4.81 6.75 -0.73 0.17 -4.91 0.35 -9.48 0.35 l-8.23 0 0 -22.59z m11.93 12.56 c0.73 -0.80 0.73 -0.59 0.59 -15.12 -0.07 -11.14 -0.14 -11.52 -1.83 -11.52 -0.62 0 -0.66 0.38 -0.66 13.42 0 7.40 0.10 13.56 0.24 13.66 0.42 0.42 1.04 0.24 1.66 -0.45z m22.80 0.14 c0.80 -0.80 0.76 -5.26 -0.07 -6.19 -1.69 -2.04 -1.80 -1.94 -1.80 2.01 0 2.87 0.10 3.77 0.55 4.19 0.28 0.31 0.59 0.55 0.66 0.55 0.07 0 0.38 -0.24 0.66 -0.55z m10.93 -14.22 l0 -5.12 -4.36 0.10 -4.32 0.10 1.66 1.25 c4.98 3.77 6.68 5.74 6.68 7.85 0 0.48 0.07 0.90 0.17 0.90 0.10 0 0.17 -2.28 0.17 -5.08z m-10.76 -12.07 c-0.52 -0.62 -0.83 -0.62 -1.49 0.07 -0.97 0.97 -0.69 3.04 0.59 4.50 l1.11 1.28 0.10 -2.66 c0.07 -1.69 -0.03 -2.87 -0.31 -3.18z"
       id="path8" />
    <path
       d="M227.19 259.43 c-1.76 -0.55 -3.25 -1.69 -4.08 -3.18 l-0.86 -1.49 -0.10 -17.40 c-0.07 -11.48 0.03 -17.85 0.28 -18.75 0.48 -1.76 1.87 -3.39 3.63 -4.19 1.18 -0.55 2.32 -0.66 7.09 -0.66 3.15 0 6.33 0.17 7.09 0.38 1.80 0.52 3.80 2.56 4.29 4.39 0.28 1 0.38 6.68 0.31 18.82 -0.10 17.33 -0.10 17.40 -0.90 18.85 -0.42 0.83 -1.42 1.90 -2.21 2.42 -1.42 0.97 -1.52 0.97 -7.51 1.04 -3.36 0.03 -6.50 -0.07 -7.02 -0.24z m7.23 -10.07 c0.31 -0.62 0.45 -3.98 0.45 -12.80 0 -11.48 -0.03 -12.04 -0.69 -12.80 l-0.69 -0.83 -0.69 0.83 c-0.69 0.80 -0.73 1.18 -0.62 13.18 0.07 9.96 0.21 12.45 0.59 12.94 0.62 0.73 1.11 0.55 1.66 -0.52z"
       id="path9" />
    <path
       d="M245.25 236.77 l0 -23 8.99 0 8.99 0 0 4.67 0 4.67 -3.98 0 -3.98 0 0 3.98 0 3.98 3.63 0 3.63 0 0 5.19 0 5.19 -3.63 0 -3.63 0 0 9.17 0 9.17 -5.02 0 -5.02 0 0 -23z"
       id="path10" />
    <path
       d="M153.10 203.39 c-12.21 -1.52 -23.28 -6.75 -32.45 -15.22 -8.75 -8.09 -14.63 -18.64 -17.30 -30.89 -0.66 -3.08 -0.76 -4.60 -0.80 -11.83 0 -9.30 0.45 -12.52 2.73 -19.54 4.50 -13.91 15.05 -26.57 27.46 -32.96 2.77 -1.45 3.39 -1.63 5.33 -1.63 5.43 0 12.07 3.56 18.02 9.62 l2.97 3.04 1.49 -1.25 c3.84 -3.25 7.89 -5.47 12.21 -6.64 2.35 -0.62 3.74 -0.73 9.51 -0.76 8.86 -0.03 10.17 0.17 12.87 1.97 3.63 2.35 10.48 9.51 13.49 14.08 6.92 10.38 9.93 20.58 9.96 33.55 0 6.40 -0.42 10.27 -1.73 15.43 -3.56 14.15 -12 25.80 -24.73 34.24 -5.67 3.77 -12.18 6.43 -19.37 7.96 -3.42 0.73 -5.33 0.90 -10.72 1 -3.60 0.07 -7.64 0 -8.96 -0.17z m14.67 -21.27 c4.36 -0.62 10.03 -2.08 10.72 -2.77 0.38 -0.38 0.38 -0.62 0.10 -0.90 -0.31 -0.31 -1.45 -0.17 -4.67 0.55 -3.70 0.86 -5.15 1 -11.38 1.14 -7.54 0.14 -11.03 -0.14 -16.33 -1.35 -2.42 -0.59 -3.15 -0.62 -3.53 -0.31 -0.83 0.69 -0.07 1.25 2.87 2.04 2.66 0.69 7.51 1.63 9.75 1.87 3.01 0.31 9.13 0.17 12.45 -0.28z m25.42 -31.06 c4.67 -1.63 9.17 -5.19 11.45 -9.06 1.35 -2.35 2.59 -6.36 2.80 -9.17 0.48 -6.71 -3.39 -14.15 -9.51 -18.19 -1.07 -0.73 -3.29 -1.80 -4.91 -2.35 l-2.94 -1.07 -29.40 0 c-32.83 0 -30.85 -0.14 -35.80 2.46 -4.74 2.49 -8.54 7.06 -10.20 12.31 -1.21 3.80 -1.38 6.12 -0.73 9.27 1.31 6.36 5.43 11.76 11 14.49 5.19 2.56 3.36 2.42 36.08 2.35 l29.40 -0.07 2.77 -0.97z"
       id="path11" />
    <path
       d="M127.43 149.12 c-5.33 -1.94 -10 -6.99 -11.17 -12.18 -0.52 -2.25 -0.45 -8.16 0.14 -10.34 1.52 -5.71 5.26 -9.93 10.90 -12.28 1.49 -0.62 3.15 -0.66 32.07 -0.80 21.52 -0.10 31.06 0 32.31 0.24 5.85 1.25 10.55 5.53 12.63 11.41 1.11 3.11 1.18 9.58 0.14 12.87 -1.63 5.33 -6.02 9.62 -11.38 11.17 -1.66 0.48 -5.57 0.55 -32.86 0.55 -29.19 -0.03 -31.10 -0.07 -32.76 -0.66z m12 -8.30 c0.76 -0.62 0.83 -0.90 0.73 -3.29 -0.10 -3.11 0.10 -3.32 3.53 -3.32 2.01 0 2.32 -0.10 2.97 -0.93 0.55 -0.69 0.69 -1.25 0.55 -1.97 -0.35 -1.73 -0.73 -1.94 -3.87 -1.94 l-2.91 0 0 -2.21 c0 -4.29 -0.66 -5.33 -2.97 -4.91 -1.90 0.38 -2.21 0.93 -2.21 4.22 l0 2.91 -2.87 0 c-3.32 0 -4.19 0.52 -4.12 2.49 0.03 1.80 1.04 2.35 4.25 2.35 l2.73 0 0 2.77 c0 2.53 0.10 2.87 0.86 3.63 1 1.04 2.21 1.11 3.32 0.21z m45.45 -0.55 c1.11 -1.07 1.07 -1.59 -0.07 -2.73 -1.07 -1.07 -2.28 -1 -3.29 0.21 -0.80 0.90 -0.80 1.38 0.10 2.49 0.90 1.14 2.14 1.18 3.25 0.03z m-7.16 -7.19 c1 -0.90 0.97 -1.80 -0.10 -2.84 -1.11 -1.14 -2.01 -1.07 -3.04 0.17 -1.07 1.25 -0.90 2.25 0.55 3.11 1.11 0.69 1.35 0.66 2.59 -0.45z m14.39 -0.21 c1.31 -1.45 -0.45 -3.87 -2.32 -3.18 -0.48 0.21 -1.14 0.73 -1.45 1.21 -0.69 1.04 -0.28 2.01 1.14 2.77 1 0.52 1.59 0.35 2.63 -0.80z m-7.23 -7.13 c1.11 -1.07 1.07 -1.59 -0.03 -2.73 -1.14 -1.11 -2.01 -1.14 -3.08 -0.03 -1.04 1 -1.07 1.56 -0.14 2.73 0.90 1.14 2.14 1.18 3.25 0.03z"
       id="path12" />
    <path
       d="M163.61 96.40 c0 -0.80 0.28 -1.42 0.97 -2.08 1.21 -1.18 6.26 -3.53 9.10 -4.25 2.66 -0.69 7.16 -0.52 10.10 0.35 1.87 0.59 1.97 0.66 1.97 1.73 l0 1.14 -4.39 0.21 c-5.02 0.21 -9.58 1.25 -13.32 2.97 -1.25 0.59 -2.77 1.07 -3.36 1.07 -0.97 0 -1.07 -0.10 -1.07 -1.14z"
       id="path13" />
  </g>
  <g
     fill="#c11418"
     id="g34"
     sodipodi:insensitive="true">
    <path
       d="m 156.31,382.47 c -5.53,-2.42 -16.26,-8.72 -25.22,-14.77 -4.43,-3.01 -14.94,-11.35 -15.15,-12 -0.07,-0.24 0.17,-0.55 0.52,-0.66 0.35,-0.1 1.28,-0.48 2.11,-0.86 1.87,-0.83 3.74,-0.83 5.64,0.03 1.25,0.55 2.28,0.69 5.91,0.69 h 4.39 l 2.35,1.52 c 9.65,6.23 21.9,13.01 23.49,13.01 0.73,0 9.17,-4.05 12.76,-6.16 1.52,-0.86 5.15,-3.11 8.06,-4.98 l 5.29,-3.39 h 9.3 c 8.06,0 9.34,0.07 9.34,0.52 0,0.28 -0.21,0.52 -0.48,0.52 -0.28,0 -1.87,1.18 -3.53,2.63 -10.41,8.92 -28.71,20.51 -38.46,24.32 -2.46,0.97 -3.25,0.9 -6.33,-0.42 z"
       id="path15" />
    <path
       d="m 155.59,359.71 c -3.04,-1.45 -3.04,-1.49 -3.04,-2.77 0,-0.73 0.1,-1.38 0.28,-1.45 0.14,-0.1 4.01,-0.28 8.65,-0.42 l 8.41,-0.24 -0.1,1.31 -0.1,1.31 -3.8,1.73 c -5.22,2.35 -6.36,2.42 -10.27,0.52 z"
       id="path16" />
    <path
       d="m 225.53,333.28 v -3.98 h 2.18 c 2.59,0 4.74,0.55 4.74,1.21 0,0.24 -0.21,0.52 -0.45,0.59 -0.59,0.14 -5.43,5.26 -5.43,5.78 0,0.21 -0.24,0.38 -0.52,0.38 -0.42,0 -0.52,-0.66 -0.52,-3.98 z"
       id="path17" />
    <path
       d="m 93.39,336.46 c 0,-0.24 -1.49,-1.9 -3.29,-3.7 -2.08,-2.04 -3.18,-3.36 -2.97,-3.56 0.45,-0.45 4.12,-1.28 5.85,-1.28 h 1.45 v 4.5 c 0,3.77 -0.07,4.5 -0.52,4.5 -0.28,0 -0.52,-0.21 -0.52,-0.45 z"
       id="path18" />
    <path
       d="m 169.84,333.8 c 0,-1.9 0.1,-2.42 0.52,-2.42 0.62,0 1.04,2.01 0.73,3.63 -0.14,0.73 -0.45,1.21 -0.73,1.21 -0.42,0 -0.52,-0.52 -0.52,-2.42 z"
       id="path19" />
    <path
       d="m 161.4,324.7 c -0.42,-0.31 -0.59,-0.8 -0.48,-1.63 l 0.1,-1.21 2.35,-0.1 2.32,-0.1 v 1.07 c 0,1.94 -2.66,3.18 -4.29,1.97 z"
       id="path20" />
    <path
       d="m 267.73,284.4 c 0,-0.59 -3.53,-4.19 -5.02,-5.15 -2.42,-1.52 -2.25,-2.35 1.56,-8.54 7.71,-12.69 12.66,-22.35 18.06,-35.32 10.27,-24.84 18.16,-55.28 21.17,-82.15 2.11,-18.54 5.33,-89.8 4.12,-91.01 -0.35,-0.35 -5.81,-1.35 -25.01,-4.64 -16.5,-2.8 -23.35,-4.08 -31.48,-5.91 -13.77,-3.08 -30.16,-8.34 -45.83,-14.67 -11.17,-4.53 -18.23,-7.75 -37.22,-17.09 -3.74,-1.83 -6.99,-3.32 -7.26,-3.32 -0.24,0 -4.5,2.01 -9.44,4.46 -36.6,18.13 -59.46,26.46 -90.14,32.86 -5.53,1.14 -13.84,2.59 -29.75,5.22 -11.69,1.94 -17.54,3.01 -18.06,3.32 -0.21,0.14 -0.24,2.42 -0.14,5.98 0.14,3.15 0.38,10.27 0.55,15.77 1,28.4 2.63,57.35 3.98,70.05 1.69,15.74 5.74,34.42 11.93,54.79 5.12,16.85 13.04,36.39 19.51,48.05 2.04,3.74 2.25,4.29 2.35,6.4 l 0.1,2.32 1.28,0.1 c 1.49,0.14 1.52,0.17 3.94,4.25 1.38,2.35 1.87,3.49 1.87,4.5 v 1.31 l -2.42,0.73 c -1.35,0.42 -3.46,1.25 -4.74,1.9 -2.39,1.28 -4.36,1.66 -3.6,0.73 0.35,-0.38 -0.31,-1.69 -3.18,-6.5 C 35.45,257.21 28.71,242.5 21.82,222.79 14.42,201.66 7.88,174.95 5.56,156.34 3.93,143.37 2.14,116.46 1.03,88.54 0.79,83.11 0.48,78.4 0.3,78.09 -0.01,77.43 -0.15,49.79 0.16,49.79 c 0.1,0 4.81,-0.83 10.48,-1.87 5.64,-1.04 11.9,-2.14 13.91,-2.46 40.4,-6.33 62.4,-12.38 93.57,-25.7 10.27,-4.39 33.07,-15.25 38.5,-18.33 2.04,-1.14 2.91,-1.45 4.22,-1.45 0.93,0 1.73,0.14 1.8,0.31 0.14,0.38 16.64,8.68 25.87,13.01 24.56,11.52 48.32,19.96 69.7,24.84 9.17,2.11 18.44,3.87 35.8,6.78 14.74,2.49 23.24,4.01 25.08,4.5 l 1.04,0.24 -0.03,12.8 c -0.03,12.14 -0.17,16.64 -1.35,41.99 -2.11,44.76 -4.15,60.95 -11.45,90.11 -6.16,24.66 -15.5,49.26 -25.98,68.49 -2.59,4.77 -6.3,10.97 -10.38,17.47 -1.14,1.83 -2.01,3.49 -1.9,3.74 0.07,0.24 -0.17,0.42 -0.59,0.42 -0.42,0 -0.73,-0.14 -0.73,-0.28 z"
       id="path21" />
    <path
       d="m 249.05,274.27 c -2.87,-1.07 -26.29,-5.88 -35.11,-7.23 -1.31,-0.21 -2.49,-0.52 -2.59,-0.73 -0.28,-0.42 -0.38,-34.18 -0.14,-34.97 0.14,-0.52 0.59,-0.62 2.42,-0.62 h 2.21 v 11.17 c 0,11.8 0.14,13.04 1.73,16.15 1.07,2.08 3.94,4.81 6.3,5.95 3.91,1.94 4.74,2.01 19.89,2.01 h 13.94 v 1.42 c 0,1.14 -0.38,2.04 -1.94,4.5 -1.97,3.08 -1.97,3.08 -3.39,3.04 -0.76,0 -2.28,-0.31 -3.32,-0.69 z"
       id="path22" />
    <path
       d="m 64.51,271.19 c -1,-1.66 -1.25,-2.35 -1.14,-3.53 l 0.1,-1.49 h 14.01 14.01 l 0.1,1.25 0.1,1.21 -11.86,2.32 c -6.54,1.28 -12.35,2.35 -12.97,2.32 -0.97,0 -1.25,-0.24 -2.35,-2.08 z"
       id="path23" />
    <path
       d="m 261.5,252.86 v -5.22 l 3.22,0.1 3.18,0.1 0.1,1.21 c 0.07,0.93 -0.42,2.14 -1.94,5.02 -1.97,3.7 -2.04,3.8 -3.29,3.91 l -1.28,0.1 v -5.22 z"
       id="path24" />
    <path
       d="m 49.01,242.41 c -7.99,-19.37 -11.14,-28.68 -15.46,-45.76 -5.12,-20.2 -6.92,-31.1 -8.3,-50.16 -1.69,-23.94 -3.84,-77.41 -3.15,-78.11 0.42,-0.42 1.49,-0.62 14.39,-2.66 28.3,-4.57 42.75,-7.75 59.67,-13.21 14.84,-4.77 34.9,-13.42 54.96,-23.66 6.36,-3.25 8.02,-3.94 9.27,-3.94 1.21,0 3.01,0.76 9.89,4.19 9.79,4.91 18.3,8.92 25.94,12.25 4.08,1.76 5.43,2.49 5.43,2.94 0,0.52 0.38,0.66 1.83,0.8 1.11,0.1 4.81,1.28 9.58,3.08 4.29,1.63 9.37,3.46 11.35,4.12 l 3.56,1.14 0.9,2.8 c 0.62,2.01 0.93,3.8 1.07,6.47 l 0.17,3.74 h -1.56 c -1.59,0 -4.5,-1.07 -13.77,-5.12 -2.18,-0.93 -7.02,-3.01 -10.72,-4.57 -10.03,-4.22 -10.72,-4.57 -10.72,-5.05 0,-0.31 -0.42,-0.48 -1.21,-0.48 -0.76,0 -4.22,-1.28 -9.27,-3.39 -4.39,-1.87 -11.31,-4.77 -15.32,-6.43 l -7.3,-3.01 -3.42,1.52 c -3.42,1.56 -10.07,4.67 -22.62,10.62 -18.99,8.99 -32.76,15.29 -36.77,16.78 l -1.66,0.62 8.23,3.01 c 4.53,1.66 11.59,4.29 15.67,5.81 l 7.44,2.77 0.21,2.04 c 0.14,1.11 0.24,4.36 0.28,7.23 l 0.03,5.22 -3.25,2.49 c -4.01,3.04 -9.65,8.86 -12.76,13.21 -2.91,4.01 -7.02,12.18 -8.47,16.74 -5.05,15.81 -3.87,31.03 3.53,45.62 6.12,12.11 16.05,21.83 28.4,27.88 5.05,2.46 9.17,3.87 14.49,4.91 l 4.05,0.76 -0.1,1.21 c -0.1,1.14 -0.24,1.25 -2.18,2.01 -2.63,1.04 -3.46,1 -5.91,-0.14 l -2.04,-0.97 H 97.56 51.73 l -0.1,17.57 -0.07,17.54 h -1.18 c -0.66,0 -1.25,-0.21 -1.35,-0.42 z"
       id="path25" />
    <path
       d="m 268.77,236.88 c 0.03,-3.11 0.17,-7.19 0.31,-9.06 0.14,-1.87 0.21,-7.23 0.1,-11.83 l -0.17,-8.44 h -19.75 c -21.1,0 -22.24,0.1 -25.53,1.76 -0.8,0.42 -2.25,1.49 -3.22,2.42 -1.35,1.25 -2.08,1.69 -2.84,1.69 -1,0 -1.04,-0.07 -1.28,-1.8 -0.1,-1 -0.21,-2.35 -0.21,-2.94 v -1.14 h -21.1 -21.1 v -1.14 c 0,-1.59 0.62,-2.04 4.67,-3.32 12.11,-3.87 24.08,-12.97 31.58,-23.97 11.21,-16.5 13.73,-36.18 6.99,-54.58 -1.66,-4.46 -2.01,-6.33 -1.38,-7.09 0.38,-0.45 0.24,-0.52 -0.83,-0.52 -0.69,0 -1.25,-0.14 -1.25,-0.31 0,-0.69 -6.36,-9.75 -8.61,-12.25 -2.53,-2.84 -5.91,-5.98 -8.92,-8.27 L 194.4,94.71 V 89.9 85.09 l 1.83,-1.18 c 0.97,-0.62 4.36,-2.59 7.51,-4.36 3.15,-1.76 8.54,-4.81 12,-6.78 3.49,-1.97 6.4,-3.6 6.47,-3.6 0.1,0 0.76,-0.38 1.45,-0.86 0.97,-0.66 1.73,-0.86 3.11,-0.86 h 1.87 v 1.31 c 0,1.07 -0.38,1.73 -2.11,3.8 -1.14,1.38 -3.18,3.39 -4.57,4.5 -4.84,3.8 -5.12,4.05 -3.18,2.8 6.23,-4.05 10.69,-8.06 12.76,-11.48 1.87,-3.11 2.14,-4.88 1.42,-8.51 -0.35,-1.69 -0.52,-3.32 -0.42,-3.63 0.35,-0.9 2.32,-0.69 8.89,1 9.62,2.46 16.5,3.8 37.15,7.3 10.62,1.76 19.47,3.25 19.65,3.25 1.25,0 -1.59,67.97 -3.74,88.55 -1.59,15.6 -5.36,34.18 -10.65,52.51 -2.87,9.82 -7.96,23.9 -11.17,30.96 -1.25,2.66 -1.25,2.66 -2.59,2.66 h -1.31 v -5.6 z M 218.54,115.81 c 1.25,-0.69 1.45,-0.93 1.45,-1.94 0,-0.8 0.21,-1.21 0.66,-1.38 0.59,-0.21 0.52,-0.45 -0.86,-2.94 -0.83,-1.49 -2.42,-3.87 -3.6,-5.29 -2.32,-2.91 -2.59,-3.98 -1.35,-5.71 0.83,-1.18 0.73,-2.08 -0.48,-3.56 -0.93,-1.14 -4.05,-1.9 -4.05,-0.97 0,0.24 -0.31,0.86 -0.69,1.35 -0.38,0.48 -0.69,1.14 -0.69,1.49 0,0.9 1.35,2.46 2.66,2.97 0.62,0.28 1.14,0.73 1.14,1 0,0.28 0.76,2.91 1.73,5.85 0.93,2.91 1.8,6.33 1.94,7.61 0.14,1.25 0.35,2.28 0.45,2.28 0.1,0 0.86,-0.35 1.69,-0.76 z"
       id="path26" />
    <path
       d="m 135.08,141.65 c -0.76,-0.76 -0.86,-1.11 -0.86,-3.63 v -2.77 h -2.73 c -3.7,0 -4.32,-0.48 -4.36,-3.39 0,-3.08 0.52,-3.53 4.22,-3.53 h 2.87 v -2.84 c 0,-1.59 0.14,-3.04 0.28,-3.29 0.69,-1.11 4.88,-1.56 6.12,-0.66 0.52,0.38 0.69,1.04 0.8,3.63 l 0.14,3.15 h 2.87 c 3.39,0 3.7,0.24 3.91,3.04 0.1,1.63 0,2.14 -0.62,2.94 -0.69,0.86 -0.93,0.93 -3.04,0.93 -3.22,0 -3.36,0.14 -3.36,3.32 0,2.35 -0.1,2.7 -0.83,3.29 -1.25,1.04 -4.29,0.93 -5.4,-0.21 z"
       id="path27" />
    <path
       d="m 181.7,142.17 c -1.73,-0.69 -2.49,-3.63 -1.38,-5.33 0.31,-0.45 1.18,-0.97 2.11,-1.25 1.42,-0.38 1.69,-0.35 2.53,0.17 1.42,0.93 1.8,1.59 1.83,3.04 0,1.69 -0.45,2.53 -1.73,3.18 -1.11,0.59 -2.21,0.62 -3.36,0.17 z"
       id="path28" />
    <path
       d="m 174.23,134.7 c -1.8,-0.97 -2.18,-3.6 -0.73,-5.29 0.76,-0.9 1.14,-1.07 2.46,-1.07 2.01,0 2.8,0.48 3.42,1.97 1.38,3.25 -2.01,6.12 -5.15,4.39 z"
       id="path29" />
    <path
       d="m 188.45,134.7 c -1.21,-0.62 -1.66,-1.49 -1.66,-3.04 0,-1.8 1.18,-3.01 3.15,-3.22 2.01,-0.24 2.97,0.28 3.63,1.87 1.38,3.22 -2.01,6.12 -5.12,4.39 z"
       id="path30" />
    <path
       d="m 181.7,127.64 c -2.01,-0.8 -2.56,-4.12 -0.97,-5.71 1.21,-1.25 3.87,-1.21 5.15,0.03 0.97,1 1.25,3.01 0.55,4.32 -0.76,1.38 -3.04,2.04 -4.74,1.35 z"
       id="path31" />
    <path
       d="m 130.06,89.52 c 0,-0.24 -0.17,-2.18 -0.38,-4.36 -0.21,-2.14 -0.28,-4.95 -0.14,-6.19 0.21,-1.94 0.42,-2.46 1.49,-3.67 2.53,-2.77 9.24,-6.54 14.77,-8.3 4.32,-1.35 7.71,-1.76 15.39,-1.76 6.75,-0.03 7.26,0 10.48,0.93 3.98,1.14 8.72,3.15 11.66,4.91 1.9,1.14 2.08,1.38 2.08,2.46 0,1.07 -0.1,1.18 -1,1.18 -0.52,0 -2.66,-0.73 -4.74,-1.59 -7.26,-3.08 -13.18,-4.05 -19.85,-3.29 -6.92,0.83 -13.42,3.01 -19.96,6.71 -6.16,3.49 -7.02,4.64 -7.02,9.41 0,3.53 -0.21,3.98 -1.59,3.98 -0.69,0 -1.18,-0.17 -1.18,-0.42 z"
       id="path32" />
    <path
       d="m 112.66,72.05 -8.58,-3.7 0.1,-1.38 0.1,-1.42 1.8,-0.1 c 1.73,-0.1 2.25,0.14 9.79,3.91 l 7.96,4.05 v 1.18 c 0,1.14 -0.03,1.18 -1.28,1.18 -0.9,0 -4.08,-1.18 -9.89,-3.7 z"
       id="path33" />
    <path
       d="m 210.66,69.11 c -5.88,-2.46 -14.87,-6.47 -23.24,-10.38 l -8.23,-3.84 v -1.31 c 0,-1.31 0.03,-1.35 1.31,-1.35 0.86,0 5.22,1.63 13.21,4.88 6.57,2.66 14.84,6.05 18.44,7.47 l 6.47,2.63 v 1.14 c 0,2.59 -2.94,2.91 -7.96,0.76 z"
       id="path34" />
  </g>
  <g
     fill="#010101"
     id="g45"
     sodipodi:insensitive="true">
    <path
       d="m 156.35,369.32 c -1.83,-0.83 -4.08,-1.94 -5.02,-2.49 -2.94,-1.66 -14.8,-8.89 -16.33,-9.93 -1.38,-0.93 -1.59,-0.97 -5.81,-0.97 -3.7,0 -4.64,-0.1 -6.09,-0.73 l -1.73,-0.76 -1.8,0.8 c -1,0.42 -2.08,0.9 -2.39,1.07 -0.35,0.17 -0.69,0.17 -0.8,-0.03 -0.1,-0.21 -1.35,-0.35 -2.73,-0.35 -2.01,0 -2.87,-0.17 -4.22,-0.86 -2.08,-1.04 -2.14,-1.07 -2.28,-0.07 -0.1,0.76 -0.14,0.76 -6.92,0.86 l -6.85,0.07 v -13.49 c 0,-10.55 -0.1,-13.49 -0.42,-13.49 -0.24,0 -1.38,0.24 -2.53,0.55 -1.14,0.28 -2.53,0.59 -3.11,0.62 -0.55,0.07 -4.91,1.07 -9.69,2.25 -4.74,1.14 -9.58,2.21 -10.72,2.32 -5.85,0.59 -11.9,-2.66 -14.49,-7.78 -0.52,-1 -2.25,-6.75 -3.87,-12.76 -5.91,-22.1 -6.16,-23.28 -5.19,-27.02 1.52,-5.91 5.47,-9.58 12.42,-11.59 1.07,-0.31 1.97,-0.69 1.97,-0.86 0,-0.35 -3.49,-6.33 -4.15,-7.13 -0.21,-0.24 -0.97,-0.52 -1.66,-0.59 l -1.28,-0.1 -0.1,-2.32 c -0.1,-2.11 -0.31,-2.66 -2.35,-6.4 C 33.99,232.47 20.19,187.33 16.77,155.3 15.18,140.11 13.48,108.26 12.24,68.79 c -0.14,-4.64 -0.1,-7.23 0.14,-7.37 0.52,-0.31 6.26,-1.38 18.06,-3.32 15.91,-2.63 24.21,-4.08 29.75,-5.22 30.68,-6.4 53.55,-14.74 90.14,-32.86 7.33,-3.63 9.3,-4.46 10.48,-4.46 1.18,0 2.91,0.69 8.3,3.32 18.99,9.34 26.05,12.56 37.22,17.09 15.67,6.33 32.07,11.59 45.83,14.67 8.13,1.83 14.98,3.11 31.48,5.91 19.44,3.32 24.59,4.29 25.11,4.67 0.45,0.38 0.38,4.19 -0.42,27.33 -0.9,26.88 -2.49,54.2 -3.8,65.72 -3.01,26.88 -10.9,57.32 -21.17,82.15 -5.4,12.97 -10.34,22.62 -18.06,35.32 -1.73,2.77 -3.11,5.15 -3.11,5.29 0,0.1 0.69,0.66 1.56,1.18 2.46,1.59 4.77,4.39 5.74,7.06 1.31,3.63 1.11,7.47 -0.69,14.11 -0.76,2.87 -2.59,9.69 -4.01,15.19 -1.45,5.5 -3.04,10.86 -3.53,11.93 -2.01,4.25 -6.09,7.26 -11.07,8.09 -2.77,0.48 -6.85,-0.14 -13.25,-2.04 -5.71,-1.66 -7.89,-2.18 -9.24,-2.21 h -1.14 v 12.8 12.8 h -19.54 -19.51 l -5.29,3.39 c -2.91,1.87 -6.54,4.12 -8.06,4.98 -4.01,2.35 -12.11,6.19 -13.42,6.36 -0.8,0.1 -1.97,-0.24 -4.39,-1.35 z m 8.58,-11.21 c 1.94,-0.86 3.63,-1.73 3.74,-1.9 0.24,-0.42 -14.42,0.03 -14.87,0.45 -0.45,0.42 -0.45,0.38 2.91,2.04 3.39,1.63 3.22,1.66 8.23,-0.59 z m -46.32,-7.68 c 1.69,-1.21 1.8,-1.9 1.69,-11.9 l -0.1,-9.24 -1.11,-1.11 c -1.04,-1 -1.28,-1.11 -4.01,-1.25 -2.21,-0.1 -3.15,-0.03 -3.98,0.42 -2.14,1.11 -2.28,1.69 -2.42,9.27 -0.21,8.96 0.07,11.73 1.21,13.08 1.11,1.35 2.49,1.73 5.4,1.56 1.63,-0.1 2.63,-0.35 3.32,-0.83 z m 13.77,0.1 c 1.66,-1.21 1.8,-2.25 1.8,-13.01 0.03,-11.24 0.24,-10.48 -2.8,-10.62 l -1.66,-0.1 v 9.65 c 0,5.29 -0.14,9.82 -0.31,10.07 -0.17,0.28 -0.73,0.42 -1.28,0.35 l -1,-0.1 -0.17,-9.86 -0.17,-9.86 h -2.08 -2.08 l -0.1,10.03 c -0.1,10.41 0.03,12 1.31,13.14 1.52,1.38 6.85,1.59 8.54,0.31 z m 73.64,0.07 c 1.76,-1.18 1.9,-2.18 1.8,-12.18 l -0.1,-9.13 -1.11,-1.11 c -1.04,-1.04 -1.35,-1.14 -3.7,-1.25 -3.22,-0.17 -4.88,0.35 -5.78,1.8 -0.59,1 -0.66,1.8 -0.66,10.48 v 9.37 l 0.9,1.07 c 0.48,0.59 1.38,1.21 1.97,1.42 1.63,0.48 5.6,0.21 6.68,-0.48 z m -103.29,-4.53 v -5.02 h 1.9 1.9 v -2.25 -2.25 h -3.77 c -2.08,0 -4.01,0.1 -4.32,0.21 -0.48,0.17 -0.55,1.14 -0.55,7.26 v 7.06 h 2.42 2.42 v -5.02 z m 38.05,0.1 c 0,-2.7 0.1,-4.81 0.21,-4.67 0.1,0.1 0.69,2.25 1.31,4.81 l 1.07,4.6 2.53,0.1 2.49,0.1 -0.07,-12.04 -0.1,-12.04 -2.14,-0.1 -2.18,-0.1 v 5.26 c 0,2.91 -0.07,5.19 -0.17,5.08 -0.1,-0.1 -0.69,-2.42 -1.35,-5.15 l -1.14,-4.98 h -2.39 -2.39 l -0.1,12.04 -0.07,12 h 2.25 2.25 v -4.91 z m 19.3,4.36 c 1.69,-1.18 1.8,-1.87 1.8,-11.76 v -9.2 l -1.14,-1.14 c -1.35,-1.35 -2.8,-1.66 -7.16,-1.49 l -2.94,0.1 -0.1,12.04 -0.07,12 h 4.43 c 3.42,0 4.57,-0.1 5.19,-0.55 z m 8.54,-2.73 v -3.11 l 1.07,-0.1 c 0.97,-0.1 1.11,0 1.31,1 0.1,0.59 0.21,2.08 0.21,3.29 v 2.21 h 2.28 2.25 l -0.1,-10.65 c -0.1,-11.93 -0.14,-12.07 -2.63,-13.11 -1.56,-0.66 -5.98,-0.38 -7.19,0.42 -1.31,0.86 -1.52,1.66 -1.63,6.64 l -0.07,4.77 h 2.21 2.25 l -0.07,-3.63 c -0.07,-2.01 0.03,-3.84 0.21,-4.08 0.17,-0.28 0.69,-0.42 1.14,-0.35 0.8,0.1 0.83,0.21 1.04,4.25 0.14,2.28 0.14,4.25 0.07,4.43 -0.07,0.14 -1.69,0.24 -3.6,0.24 h -3.42 v 5.53 5.57 l 2.35,-0.1 2.32,-0.1 v -3.11 z m 16.08,-6.23 v -9.51 h -2.25 -2.25 v 9.51 9.51 h 2.25 2.25 z m 9.27,-2.49 -0.1,-12.04 h -2.08 -2.08 l -0.1,12.04 -0.07,12 h 2.25 2.25 z m 20.48,9.03 c 0,-2.59 0.07,-2.94 0.59,-2.84 0.45,0.07 0.8,0.9 1.28,2.97 l 0.69,2.87 2.46,-0.1 2.42,-0.1 v -10.65 c 0,-6.75 -0.14,-10.76 -0.35,-10.9 -0.35,-0.24 -3.18,-1.07 -3.7,-1.11 -0.17,0 -0.28,1.87 -0.28,4.12 0,2.28 -0.14,4.22 -0.28,4.32 -0.17,0.1 -0.66,-1.31 -1.07,-3.18 -1.45,-6.43 -1.07,-5.81 -3.84,-6.19 l -2.42,-0.31 v 12.04 12.04 h 2.25 2.25 v -2.97 z m -112,-14.39 0.1,-2.53 2.18,-0.1 2.14,-0.1 v -2.04 -2.08 h -1.28 c -0.73,0 -2.7,0.31 -4.43,0.66 l -3.11,0.62 -0.1,3.56 c -0.03,1.97 0,3.8 0.07,4.05 0.14,0.31 0.86,0.45 2.25,0.45 h 2.08 z m 85.3,-4.32 -0.1,-2.35 -5.08,-0.1 -5.12,-0.1 v 2.46 2.42 h 5.19 5.22 l -0.1,-2.32 z M 71.42,325.35 c 5.05,-1.56 6.5,-2.56 7.61,-5.19 0.66,-1.59 0.55,-2.7 -0.73,-8.23 -0.8,-3.32 -0.97,-3.74 -1.63,-3.74 -0.73,0 -6.75,1.56 -6.99,1.8 -0.07,0.07 0.17,1.35 0.55,2.87 1.07,4.46 0.86,5.19 -1.49,5.57 -0.83,0.14 -1.31,0.03 -1.73,-0.45 -0.62,-0.69 -7.33,-26.25 -7.02,-26.74 0.31,-0.52 2.32,-1.38 3.15,-1.38 1,0 1.38,0.69 2.18,4.05 0.35,1.49 0.76,2.7 0.93,2.7 0.66,0 6.88,-1.66 7.16,-1.9 0.38,-0.35 -1.42,-7.44 -2.39,-9.37 -0.97,-1.97 -2.73,-3.11 -4.95,-3.36 -2.14,-0.21 -9.51,1.76 -11.59,3.04 -1.76,1.14 -2.97,3.36 -2.97,5.5 0,1.35 5.81,24.42 7.61,30.23 0.83,2.7 2.59,4.91 4.29,5.43 1.69,0.48 4.6,0.21 7.99,-0.83 z m 179.35,0.55 c 2.04,-1 2.97,-2.84 4.5,-8.82 1.56,-6.09 1.69,-7.99 0.73,-9.86 -0.35,-0.69 -2.32,-3.53 -4.32,-6.26 -2.01,-2.73 -3.67,-5.29 -3.67,-5.67 0,-0.42 0.24,-1.63 0.55,-2.73 0.69,-2.39 1.35,-2.91 3.08,-2.35 1.94,0.66 2.04,0.97 1.18,4.46 -0.42,1.73 -0.69,3.22 -0.59,3.32 0.24,0.24 7.33,2.21 7.47,2.08 0.38,-0.38 2.14,-8.2 2.14,-9.51 0,-2.04 -1.21,-4.43 -2.73,-5.43 -1.42,-0.97 -5.85,-2.39 -9.03,-2.94 -2.87,-0.48 -4.67,-0.07 -6.43,1.56 -1.35,1.28 -2.42,4.01 -3.56,9.37 -1.07,4.95 -0.86,5.5 5.57,13.97 1.49,1.94 2.7,3.7 2.7,3.91 0,1.04 -1.49,6.43 -1.9,7.02 -0.38,0.52 -0.76,0.59 -1.73,0.45 -2.56,-0.42 -2.7,-1.07 -1.35,-6.02 0.48,-1.8 0.8,-3.46 0.73,-3.7 -0.17,-0.45 -7.13,-2.46 -7.4,-2.14 -0.1,0.1 -0.73,2.25 -1.38,4.77 -1.8,7.02 -1.63,9.34 1,11.52 1.38,1.18 2.01,1.42 6.5,2.63 4.15,1.11 6.23,1.21 7.96,0.38 z m -87.06,-3.11 c -0.45,-0.07 -1.11,-0.03 -1.42,0.1 -0.52,0.21 -0.52,0.28 0.07,0.69 0.55,0.42 0.76,0.42 1.42,-0.1 l 0.8,-0.59 -0.86,-0.1 z m -76.72,-1.18 c 1.35,-0.24 2.59,-0.52 2.8,-0.69 0.24,-0.17 -0.14,-2.84 -1.31,-8.65 -0.9,-4.64 -1.66,-8.58 -1.66,-8.79 0,-0.31 4.15,-1.25 4.46,-0.97 0.07,0.07 0.86,3.94 1.76,8.61 0.93,4.7 1.73,8.61 1.83,8.68 0.14,0.14 4.32,-0.52 7.02,-1.07 l 0.73,-0.17 -0.86,-4.39 c -0.45,-2.46 -2.28,-12 -4.05,-21.31 -1.73,-9.27 -3.29,-16.95 -3.39,-17.09 -0.21,-0.17 -7.47,0.86 -7.78,1.11 -0.07,0.07 0.62,3.84 1.52,8.44 0.9,4.57 1.56,8.41 1.45,8.51 -0.28,0.28 -4.15,0.93 -4.36,0.73 -0.1,-0.1 -0.76,-3.29 -1.49,-7.02 -1.76,-9.13 -1.83,-9.48 -2.14,-9.51 -0.14,0 -1.9,0.28 -3.87,0.62 -2.59,0.45 -3.63,0.76 -3.63,1.11 0,0.66 7.78,40.71 8.2,42.06 0.14,0.48 0.38,0.59 1.28,0.42 0.59,-0.14 2.18,-0.42 3.49,-0.62 z m 148.53,-20.69 c 2.35,-11.8 4.22,-21.52 4.15,-21.62 -0.24,-0.21 -7.61,-1.66 -7.75,-1.52 -0.1,0.1 -0.66,2.94 -3.36,17.09 -0.38,1.97 -0.42,2.04 -0.66,0.93 -0.14,-0.66 -0.35,-5.12 -0.48,-9.96 -0.14,-5.05 -0.42,-8.89 -0.59,-8.99 -0.73,-0.45 -8.41,-1.76 -8.58,-1.49 -0.1,0.17 -0.8,3.46 -1.52,7.3 -0.73,3.87 -2.56,13.39 -4.05,21.17 -1.49,7.82 -2.66,14.22 -2.63,14.29 0.17,0.17 7.58,1.52 7.71,1.42 0.07,-0.1 1.59,-7.99 2.84,-14.94 0.14,-0.76 0.45,-1.42 0.69,-1.52 0.31,-0.1 0.42,0.52 0.42,2.25 0,2.53 0.73,15.08 0.86,15.25 0.1,0.14 7.4,1.69 8.13,1.76 0.45,0.03 1.35,-4.01 4.81,-21.41 z m -126.91,16.81 2.94,-0.38 -0.1,-1.21 c -0.07,-0.66 -0.38,-3.22 -0.73,-5.71 -0.35,-2.46 -0.55,-4.6 -0.42,-4.74 0.1,-0.14 1.18,-0.35 2.32,-0.45 l 2.11,-0.24 0.21,1.14 c 0.1,0.66 0.48,3.25 0.8,5.78 l 0.59,4.6 3.15,-0.21 c 4.53,-0.31 4.7,-0.35 4.7,-1.49 0,-0.55 -0.24,-2.7 -0.52,-4.77 -0.31,-2.08 -1.25,-9.3 -2.11,-16.05 -1.94,-15.53 -2.11,-16.4 -2.94,-18.06 -1.42,-2.77 -3.74,-3.39 -9.82,-2.53 -6.36,0.86 -8.65,2.18 -9.55,5.47 -0.31,1.21 -0.24,2.73 0.52,8.89 0.52,4.08 1,7.96 1.14,8.58 l 0.17,1.11 3.01,0.03 2.97,0.03 -2.94,0.42 -2.94,0.38 0.1,1.04 c 0.21,2.21 2.18,16.98 2.35,17.92 0.21,1.07 0.42,1.11 4.98,0.45 z m 97.99,-1.69 c 2.53,-1.9 2.46,-1.66 5.26,-23.52 1.63,-12.76 1.59,-14.42 -0.28,-16.43 -1.28,-1.38 -3.08,-2.08 -6.88,-2.63 -4.25,-0.66 -5.85,-0.69 -7.58,-0.21 -1.63,0.45 -3.63,2.46 -4.12,4.08 -0.48,1.73 -4.15,30.23 -4.15,32.2 0.03,2.8 1.66,5.36 3.98,6.26 1.94,0.76 6.23,1.35 9.37,1.28 2.84,-0.07 3.25,-0.17 4.39,-1.04 z m -73.12,-1.14 c 0.07,-0.07 -0.1,-5.36 -0.42,-11.8 -0.31,-6.4 -0.48,-11.73 -0.42,-11.83 0.1,-0.07 0.28,-0.07 0.38,0.07 0.28,0.28 3.94,21.2 3.94,22.52 v 1 l 3.67,-0.21 c 2.01,-0.07 3.7,-0.24 3.77,-0.31 0.07,-0.07 0.48,-5.02 0.9,-11 0.69,-9.93 0.97,-11.93 1.52,-11.35 0.1,0.1 0.45,5.15 0.73,11.21 0.31,6.09 0.59,11.07 0.59,11.07 0.03,0.03 1.83,-0.03 4.01,-0.14 l 3.94,-0.17 -0.24,-5.4 c -0.14,-2.97 -0.38,-8.27 -0.55,-11.76 -0.17,-3.49 -0.52,-10.83 -0.73,-16.26 -0.21,-5.43 -0.52,-10.03 -0.66,-10.17 -0.14,-0.17 -2.84,-0.21 -5.98,-0.07 l -5.67,0.28 -0.21,1.94 c -0.1,1.07 -0.55,7.13 -0.97,13.46 -0.45,6.33 -0.9,11.31 -1.04,11.07 -0.1,-0.24 -0.35,-1.21 -0.48,-2.18 -0.31,-2.32 -4.01,-23.83 -4.12,-23.94 -0.17,-0.17 -11.48,0.73 -11.73,0.93 -0.17,0.14 -0.07,4.67 0.24,10.07 0.73,12.9 1.59,30.2 1.59,32.1 v 1.52 l 3.91,-0.28 c 2.11,-0.14 3.94,-0.31 4.01,-0.38 z m 53.06,-2.28 c 0.21,-2.8 2.42,-31.17 2.94,-37.6 0.17,-2.14 0.14,-3.25 -0.1,-3.36 -0.97,-0.31 -7.23,-0.8 -7.44,-0.59 -0.38,0.38 -3.7,43.2 -3.39,43.51 0.14,0.14 4.43,0.66 7.06,0.83 0.66,0.03 0.76,-0.21 0.93,-2.8 z m -20.86,-3.7 c 0,-2.8 0.1,-5.85 0.21,-6.75 l 0.24,-1.59 h 3.32 c 4.88,-0.03 7.06,-1.25 7.99,-4.46 0.21,-0.69 0.55,-5.33 0.76,-10.34 0.42,-10.07 0.31,-10.97 -1.49,-13.04 -1.59,-1.8 -3.53,-2.25 -11.24,-2.49 l -6.61,-0.21 -0.24,7.75 c -0.42,13.77 -0.86,27.36 -1.07,31.89 l -0.21,4.39 h 4.15 4.19 z m 89.04,-38.05 c 1.07,-1.69 1.94,-3.25 1.94,-3.46 0,-0.28 -3.87,-0.38 -13.94,-0.38 -15.15,0 -15.98,-0.07 -19.89,-2.01 -2.35,-1.14 -5.22,-3.87 -6.3,-5.95 -1.59,-3.11 -1.73,-4.36 -1.73,-16.15 v -11.17 h -1.21 c -0.97,0 -1.25,0.14 -1.38,0.8 -0.21,0.97 -0.03,32.65 0.21,32.9 0.07,0.1 1.25,0.35 2.56,0.55 8.82,1.35 32.24,6.16 35.11,7.23 1.04,0.38 2.08,0.69 2.28,0.69 0.21,0.03 1.28,-1.35 2.35,-3.04 z M 79.45,269.8 c 6.12,-1.21 11.07,-2.32 10.97,-2.49 -0.1,-0.14 -5.95,-0.28 -12.97,-0.28 -10.9,0 -12.8,0.07 -12.97,0.52 -0.1,0.28 0.38,1.45 1.07,2.63 1.04,1.69 1.45,2.08 2.04,1.97 0.38,-0.1 5.74,-1.14 11.86,-2.35 z M 67.14,246.04 c 0,-7.51 0.14,-12.45 0.31,-12.04 0.24,0.52 2.63,18.3 3.18,23.69 0.1,0.86 0.14,0.86 3.84,0.97 2.87,0.07 3.7,0 3.7,-0.35 0,-0.8 1.69,-15.46 2.25,-19.41 0.28,-2.04 0.52,-3.8 0.52,-3.87 0,-0.1 0.17,-0.17 0.35,-0.17 0.21,0 0.35,4.22 0.35,11.93 v 11.93 h 3.98 3.98 V 236.76 214.8 h -5.85 c -4.36,0 -5.88,0.1 -6.02,0.45 -0.07,0.21 -0.83,6.23 -1.66,13.32 -0.83,7.13 -1.63,12.66 -1.73,12.28 -0.14,-0.35 -0.9,-5.98 -1.66,-12.56 -0.8,-6.57 -1.52,-12.28 -1.59,-12.69 -0.17,-0.8 -0.24,-0.8 -6.05,-0.8 h -5.88 v 21.96 21.96 h 3.98 3.98 l 0.03,-12.69 z m 32.83,-9.27 V 214.81 H 95.96 91.98 L 92.15,231 c 0.1,8.89 0.21,18.75 0.21,21.96 v 5.78 h 3.8 3.8 v -21.96 z m 10.65,13.14 c -0.07,-4.84 0.03,-8.79 0.21,-8.72 0.14,0.03 1.25,3.98 2.42,8.72 l 2.14,8.65 4.39,0.1 4.39,0.1 v -22 -21.96 h -4.01 -3.98 l 0.07,9.34 c 0.03,5.15 0,9.41 -0.1,9.51 -0.1,0.14 -1.38,-4.88 -4.39,-17.64 l -0.24,-1.04 -4.39,-0.1 -4.39,-0.1 v 22 21.96 h 3.98 4.01 l -0.1,-8.82 z m 31.65,8.44 c 1.73,-0.48 3.49,-2.04 4.25,-3.87 0.62,-1.35 0.66,-2.53 0.55,-18.16 -0.07,-15.84 -0.1,-16.81 -0.76,-18.06 -0.73,-1.45 -1.97,-2.46 -3.77,-3.04 -1.66,-0.59 -14.98,-0.55 -15.53,0 -0.31,0.31 -0.42,5.67 -0.42,21.96 v 21.55 h 7.19 c 3.94,0 7.75,-0.17 8.47,-0.38 z m 24.14,-0.59 c 1.45,-0.76 2.01,-1.31 2.73,-2.66 0.83,-1.66 0.86,-1.94 0.86,-8.3 0,-5.71 -0.07,-6.75 -0.66,-7.85 -0.66,-1.38 -2.53,-3.08 -7.54,-6.95 -4.15,-3.22 -4.43,-3.63 -4.43,-6.5 0,-1.66 0.17,-2.49 0.55,-2.87 0.66,-0.66 3.01,-0.73 3.53,-0.1 0.21,0.24 0.45,1.94 0.48,3.74 l 0.1,3.25 h 3.98 3.98 l -0.03,-4.91 c -0.07,-5.64 -0.45,-6.85 -2.77,-8.51 -1.69,-1.18 -5.81,-1.73 -10.2,-1.31 -4.15,0.38 -6.5,1.83 -7.23,4.5 -0.52,1.94 -0.45,11.59 0.14,12.97 0.59,1.42 2.14,2.94 6.75,6.54 5.5,4.29 5.22,3.87 5.22,8.06 0,4.01 -0.31,4.64 -2.25,4.64 -2.01,0 -2.25,-0.55 -2.25,-5.4 v -4.29 h -3.98 -3.98 v 5.81 c 0,5.33 0.07,5.91 0.8,7.33 1.52,2.97 3.53,3.77 9.79,3.8 4.32,0 4.64,-0.03 6.4,-0.97 z m 22.1,-3.18 v -4.15 h -3.94 -3.91 l -0.24,-1.07 c -0.28,-1.38 -0.28,-7.16 0,-8.16 0.21,-0.76 0.38,-0.8 4.15,-0.8 h 3.94 v -4.15 -4.15 l -8.02,0.07 -8.06,0.1 -0.1,13.25 -0.07,13.21 h 8.13 8.13 v -4.15 z m 15.22,-13.14 v -17.3 h -3.98 -3.98 v 17.3 17.3 h 3.98 3.98 z m 36.94,16.15 c 0.8,-0.52 1.8,-1.59 2.21,-2.42 0.8,-1.45 0.8,-1.56 0.9,-17.81 0.07,-11.38 -0.03,-16.78 -0.31,-17.78 -0.48,-1.83 -2.49,-3.87 -4.29,-4.39 -0.76,-0.21 -3.49,-0.38 -6.05,-0.38 -3.77,0 -4.95,0.14 -6.05,0.66 -1.76,0.8 -3.15,2.42 -3.63,4.19 -0.24,0.9 -0.35,6.95 -0.28,17.71 l 0.1,16.36 0.86,1.49 c 0.83,1.49 2.32,2.63 4.08,3.18 0.52,0.17 3.22,0.28 5.98,0.24 4.84,-0.07 5.08,-0.1 6.47,-1.04 z m 13.56,-8.02 v -9.17 h 3.63 3.63 v -4.15 -4.15 h -7.61 -7.61 v 13.32 13.32 h 3.98 3.98 z m 11.07,2.91 c 0.93,-1.83 1.63,-3.42 1.49,-3.56 -0.1,-0.1 -1.14,-0.21 -2.25,-0.21 h -2.01 v 4.25 c 0.03,4.91 0,4.91 2.77,-0.48 z M 97.54,206.68 h 46.87 l 1.97,0.93 1.97,0.9 1.83,-0.69 c 1,-0.38 1.94,-0.8 2.08,-0.93 0.17,-0.14 -1.52,-0.59 -3.74,-1.04 -5.33,-1 -9.44,-2.42 -14.49,-4.88 -12.35,-6.05 -22.28,-15.77 -28.4,-27.88 -7.51,-14.8 -8.72,-31.41 -3.53,-47.7 1.45,-4.57 5.57,-12.73 8.47,-16.74 3.11,-4.36 8.75,-10.17 12.76,-13.21 l 3.25,-2.49 -0.03,-4.19 c -0.03,-2.32 -0.14,-5.08 -0.28,-6.19 l -0.21,-2.01 -10.9,-4.08 c -5.98,-2.25 -13.42,-4.98 -16.53,-6.09 -5.26,-1.9 -5.57,-2.04 -5.05,-2.63 0.28,-0.31 1.42,-0.93 2.49,-1.38 5.33,-2.11 18.44,-8.09 37.08,-16.91 23.59,-11.17 25.7,-12.11 27.12,-12.11 1.04,0 10.79,3.91 26.05,10.41 3.08,1.31 5.78,2.39 6.02,2.39 0.21,0 1.18,-0.59 2.14,-1.28 0.97,-0.73 2.77,-1.94 3.98,-2.73 l 2.18,-1.42 -5.47,-2.35 c -7.64,-3.32 -16.15,-7.33 -25.94,-12.25 -4.64,-2.28 -8.61,-4.19 -8.86,-4.19 -0.28,0 -3.98,1.76 -8.23,3.94 -15.67,8.02 -30.79,14.8 -43.72,19.68 C 87.7,57.34 71.37,61.29 37.51,66.75 24.61,68.79 23.54,69 23.15,69.38 c -1,1.11 2.56,75.27 4.36,90.25 2.14,18.19 8.82,45.76 15.32,63.58 1.31,3.6 6.09,15.57 7.23,18.23 0.14,0.28 0.31,-7.4 0.42,-17.12 l 0.17,-17.64 h 46.87 z m 174.09,32.1 c 3.22,-7.06 8.3,-21.13 11.17,-30.96 5.29,-18.33 9.06,-36.91 10.65,-52.51 2.08,-19.96 4.91,-86.48 3.74,-86.48 -0.17,0 -9.03,-1.49 -19.65,-3.25 -20.69,-3.49 -27.53,-4.84 -37.25,-7.33 -3.36,-0.86 -6.26,-1.49 -6.43,-1.38 -0.17,0.1 -0.07,1.18 0.21,2.35 0.76,3.25 0.45,6.33 -0.93,9.13 -1.94,3.94 -5.85,7.58 -14.32,13.25 -5.29,3.6 -7.16,5.91 -7.26,9.13 -0.03,1.66 0.03,1.8 0.83,1.9 1.94,0.21 2.46,0.48 3.29,1.76 1.18,1.73 1.25,3.7 0.24,5.12 l -0.76,1.07 2.25,2.84 c 1.21,1.56 2.8,3.87 3.49,5.19 0.76,1.45 1.69,2.7 2.42,3.18 0.66,0.45 1.18,0.9 1.18,1 0,0.55 -1.07,1 -2.11,0.93 -1.11,-0.1 -1.18,-0.03 -1.18,1.04 0,1.04 -0.17,1.25 -1.87,2.14 -2.87,1.52 -2.94,1.66 -2.18,3.49 3.42,7.99 5.15,17.71 4.81,26.91 -0.45,12.18 -3.91,22.83 -10.69,32.83 -7.51,11 -19.51,20.13 -31.58,23.97 -1.9,0.59 -3.77,1.38 -4.15,1.73 -0.66,0.66 -0.24,0.66 20.69,0.66 15.25,0 21.31,0.1 21.13,0.38 -0.1,0.21 -0.1,1.52 0.03,2.94 l 0.24,2.59 1.8,-1.69 c 1,-0.97 2.46,-2.04 3.25,-2.46 3.29,-1.69 4.36,-1.76 26.63,-1.76 h 20.82 v 0.8 c 0,0.42 0,4.88 0.07,9.93 0.03,5.05 -0.07,12.56 -0.24,16.71 -0.17,4.98 -0.17,7.51 0.07,7.51 0.17,0 0.9,-1.21 1.59,-2.66 z m -17.47,-12.11 0.1,-4.6 h 3.94 3.98 v -3.63 -3.63 h -7.96 -7.96 v 8.09 c 0,6.16 0.1,8.16 0.45,8.3 0.21,0.1 1.97,0.14 3.87,0.1 l 3.46,-0.07 0.1,-4.57 z m -73.61,-0.1 v -4.5 h 4.15 4.15 v -3.63 -3.63 h -8.3 -8.3 v 8.13 8.13 h 4.15 4.15 z m 28.64,-7.51 0.1,-4.25 h -9.37 -9.34 v 4.32 4.32 l 9.27,-0.07 9.24,-0.1 z m -37.46,-17.54 c 7.19,-1.52 13.66,-4.19 19.37,-7.96 12.73,-8.44 21.17,-20.1 24.73,-34.24 2.18,-8.65 2.32,-18.4 0.35,-27.36 -1.31,-6.16 -4.57,-13.52 -8.58,-19.54 -3.01,-4.57 -9.86,-11.73 -13.49,-14.08 -2.63,-1.76 -4.05,-2.01 -11.83,-1.97 -4.67,0.03 -6.19,0.17 -8.47,0.8 -4.53,1.21 -8.44,3.39 -12.66,7.02 -1.07,0.9 -2.08,1.66 -2.18,1.66 -0.14,0 -1.69,-1.52 -3.49,-3.42 -4.6,-4.77 -9.62,-8.13 -14.32,-9.51 -2.94,-0.86 -3.94,-0.73 -7.37,1.07 -12.42,6.4 -22.97,19.06 -27.46,32.96 -2.21,6.78 -2.73,10.34 -2.7,18.51 0,6.12 0.14,7.82 0.76,10.79 2.63,12.21 8.54,22.8 17.3,30.89 9.17,8.47 20.24,13.7 32.45,15.22 4.36,0.55 13.01,0.14 17.61,-0.83 z m 43.55,-87.1 c -0.14,-0.83 -0.97,-3.87 -1.9,-6.75 -0.93,-2.91 -1.69,-5.53 -1.69,-5.81 0,-0.28 -0.52,-0.73 -1.14,-1 -0.66,-0.24 -1.49,-0.9 -1.9,-1.42 -1,-1.25 -1.04,-3.87 -0.1,-5.05 0.48,-0.62 0.69,-1.56 0.76,-3.6 0.24,-4.84 2.08,-7.37 9.65,-13.25 3.74,-2.91 8.65,-7.92 8.65,-8.79 0,-0.59 -1.69,-0.24 -2.91,0.59 -0.69,0.48 -1.35,0.86 -1.45,0.86 -0.07,0 -2.97,1.63 -6.47,3.6 -3.46,1.97 -8.86,5.02 -12,6.78 -3.15,1.76 -6.54,3.74 -7.51,4.36 l -1.83,1.18 v 3.77 3.77 l 1.83,1.38 c 3.01,2.28 6.4,5.43 8.92,8.27 2.25,2.49 8.61,11.55 8.61,12.25 0,0.17 0.17,0.31 0.35,0.31 0.21,0 0.28,-0.55 0.14,-1.45 z M 167.55,95.19 c 3.01,-1.45 7.92,-2.53 12.83,-2.77 l 4.5,-0.24 -2.08,-0.66 c -3.11,-0.93 -5.57,-1.07 -8.13,-0.42 -2.91,0.76 -8.27,3.32 -9.34,4.5 -0.97,1.07 -0.76,1.04 2.21,-0.42 z m -35.8,-10.1 c 0.07,-4.98 0.83,-6.05 7.06,-9.58 8.96,-5.08 18.16,-7.37 27.57,-6.92 4.77,0.24 8.99,1.25 14.36,3.49 4.53,1.9 3.74,1.04 -1.38,-1.49 -3.94,-1.97 -7.61,-3.22 -11.69,-4.05 -5.19,-1.07 -15.95,-0.21 -21.52,1.69 -5.4,1.87 -11.69,5.47 -14.04,8.09 -1.56,1.69 -1.83,3.49 -1.35,8.09 0.17,1.8 0.35,3.56 0.38,3.94 v 0.69 l 0.31,-0.69 c 0.17,-0.38 0.31,-1.87 0.31,-3.29 z m -9.93,-11.07 c -0.66,-0.42 -4.29,-2.28 -8.09,-4.19 -6.43,-3.22 -8.16,-3.8 -8.47,-2.87 -0.1,0.31 16.5,7.75 17.36,7.75 0.21,0 -0.17,-0.31 -0.8,-0.69 z m 95.05,-5.12 c 0.76,-0.62 0.69,-0.66 -5.74,-3.25 -3.6,-1.45 -11.9,-4.84 -18.47,-7.51 -6.57,-2.7 -12.04,-4.88 -12.18,-4.88 -0.17,0 -0.28,0.14 -0.28,0.31 0,0.66 33.69,15.84 35.32,15.91 0.31,0.03 0.93,-0.24 1.35,-0.59 z m 12,-6.19 c -0.1,-1.49 -0.59,-3.94 -1.07,-5.47 l -0.9,-2.8 -2.49,-0.8 c -2.25,-0.73 -17.5,-6.26 -20.2,-7.33 -0.59,-0.24 -1.42,-0.31 -1.9,-0.21 -1.11,0.28 -7.92,4.32 -7.92,4.7 0,0.31 1.14,0.83 10.72,4.88 8.54,3.6 21.07,8.92 21.96,9.34 0.38,0.17 1,0.31 1.35,0.31 0.59,0.03 0.62,-0.17 0.45,-2.63 z"
       id="path35" />
    <path
       d="m 113.87,346.98 c -0.59,-0.35 -0.97,-14.25 -0.42,-15.25 0.42,-0.76 1.38,-0.9 2.01,-0.28 0.59,0.59 0.59,14.84 0,15.43 -0.48,0.48 -0.97,0.52 -1.59,0.1 z"
       id="path36" />
    <path
       d="m 201.14,346.74 c -0.45,-0.48 -0.55,-1.52 -0.48,-7.37 0.07,-7.13 0.24,-8.34 1.28,-8.34 1.35,0 1.45,0.55 1.45,8.13 0,7.33 -0.14,8.13 -1.25,8.13 -0.24,0 -0.69,-0.24 -1,-0.55 z"
       id="path37" />
    <path
       d="m 155.21,347.05 c -0.14,-0.1 -0.24,-3.77 -0.24,-8.13 0,-7.54 0.03,-7.89 0.66,-7.89 1.8,0 1.76,-0.1 1.76,7.99 0,7.13 -0.03,7.58 -0.66,7.92 -0.8,0.42 -1.21,0.45 -1.52,0.1 z"
       id="path38" />
    <path
       d="m 108.41,296.96 c 0.62,-0.48 0.62,-0.66 -0.31,-7.64 l -1,-7.16 0.8,-0.62 c 0.9,-0.73 3.32,-0.9 3.7,-0.28 0.17,0.31 2.21,14.22 2.21,15.22 0,0.21 -4.64,1 -5.64,1 -0.24,0 -0.1,-0.24 0.24,-0.52 z"
       id="path39" />
    <path
       d="m 197.79,309.2 c -0.35,-0.21 -0.62,-0.76 -0.62,-1.31 0,-1.25 3.04,-25.18 3.29,-26.05 0.31,-0.9 1.38,-1.38 2.49,-1.11 1.45,0.35 1.83,0.8 1.83,2.08 0,2.01 -3.11,25.46 -3.49,26.12 -0.38,0.73 -2.46,0.9 -3.49,0.28 z"
       id="path40" />
    <path
       d="m 166.38,288.73 c 0,-1.97 0.1,-5.26 0.24,-7.26 l 0.21,-3.7 h 1.11 c 2.11,0 2.39,0.52 2.32,4.53 -0.1,5.12 -0.45,9.06 -0.83,9.58 -0.21,0.21 -0.97,0.42 -1.69,0.42 h -1.35 v -3.56 z"
       id="path41" />
    <path
       d="m 134.8,251.23 c -0.14,-0.1 -0.24,-6.75 -0.24,-14.7 v -14.46 h 1.69 c 2.87,0 2.8,-0.38 2.91,11.52 0.14,17.02 0.14,16.33 -0.59,17.16 -0.48,0.52 -1.07,0.73 -2.11,0.73 -0.8,0 -1.56,-0.1 -1.66,-0.24 z"
       id="path42" />
    <path
       d="m 231.72,250.92 c -0.38,-0.48 -0.52,-3.04 -0.59,-13.91 -0.1,-15.12 -0.14,-14.94 2.35,-14.94 2.46,0 2.42,-0.17 2.42,14.53 0,14.7 0,14.63 -2.28,14.8 -1,0.07 -1.56,-0.07 -1.9,-0.48 z"
       id="path43" />
    <path
       d="m 153.06,183.3 c -3.15,-0.42 -9.58,-1.87 -10.79,-2.46 -0.76,-0.35 -1,-0.73 -1.07,-1.73 -0.1,-1.04 0.03,-1.38 0.76,-1.83 0.83,-0.55 1.07,-0.52 4.6,0.31 5.91,1.38 9.3,1.69 16.19,1.49 5.08,-0.14 6.92,-0.35 10.03,-1.11 5.81,-1.38 5.88,-1.38 6.71,-0.55 1.8,1.8 0.55,3.22 -3.77,4.36 -6.68,1.76 -15.91,2.35 -22.66,1.52 z"
       id="path44" />
    <path
       d="m 128.68,152.68 c -10.1,-2.66 -16.74,-11.69 -16.15,-21.93 0.45,-7.75 4.81,-14.74 11.31,-18.13 4.95,-2.59 2.87,-2.46 36.84,-2.46 h 30.44 l 2.94,1.07 c 7.23,2.56 12.31,8.2 14.04,15.53 1.14,4.98 0.14,11.86 -2.42,16.26 -2.28,3.87 -6.78,7.44 -11.45,9.06 l -2.77,0.97 -30.44,0.07 c -25.7,0.07 -30.75,0 -32.34,-0.45 z m 63.34,-4.5 c 5.36,-1.56 9.75,-5.85 11.38,-11.17 1,-3.15 0.93,-7.78 -0.14,-10.79 -2.08,-5.88 -6.78,-10.17 -12.63,-11.41 -1.25,-0.28 -10.45,-0.35 -31.27,-0.24 -27.88,0.14 -29.54,0.17 -31.03,0.8 -5.64,2.35 -9.37,6.57 -10.9,12.28 -0.59,2.21 -0.66,6.09 -0.14,8.27 1.18,5.19 5.85,10.24 11.17,12.18 1.66,0.59 3.56,0.62 31.72,0.66 26.32,0 30.16,-0.07 31.82,-0.55 z"
       id="path45" />
  </g>
</svg>
